<svg xmlns="http://www.w3.org/2000/svg" width="101" height="85.466" viewBox="0 0 101 85.466"><defs><style>.a{fill:#262d32;}</style></defs><g transform="translate(0 -31.992)"><g transform="translate(24.156 31.992)"><path class="a" d="M147.636,35.772c-5.112-4.817-13.872-5.916-21.8,2.008-7.913-7.917-16.684-6.825-21.8-2.012a14.435,14.435,0,0,0-.319,20.724L125.84,78.611,147.955,56.5A14.435,14.435,0,0,0,147.636,35.772Zm-2.428,17.974L125.84,73.119,106.471,53.75a10.543,10.543,0,0,1,.237-15.15,10.118,10.118,0,0,1,7-2.719c5.563,0,8.064,3.325,12.132,7.392,3.958-3.958,6.507-7.392,12.132-7.392a10.149,10.149,0,0,1,7,2.715A10.543,10.543,0,0,1,145.208,53.746Z" transform="translate(-99.496 -31.992)"/></g><g transform="translate(58.269 35.881)"><path class="a" d="M276.092,48.009a6.613,6.613,0,0,0-6.6,5.967l-2.459,24.283a6.236,6.236,0,0,0-3.115,1.67L244.293,98.194A13.192,13.192,0,0,0,240,107.828v21.758h23.308v-10.24a5.881,5.881,0,0,1,1.868-4.261l14.742-14.878a9.663,9.663,0,0,0,2.812-6.837V54.648A6.648,6.648,0,0,0,276.092,48.009Zm2.754,45.361a5.8,5.8,0,0,1-1.69,4.106l-14.7,14.831a9.727,9.727,0,0,0-3.038,7.039V125.7H243.885v-17.85a9.281,9.281,0,0,1,3.042-6.79L266.61,82.73a2.569,2.569,0,0,1,3.57,0,2.516,2.516,0,0,1,.742,1.787,2.486,2.486,0,0,1-.676,1.721L255.092,99.981l2.61,2.875,15.224-13.81a6.405,6.405,0,0,0,0-9.063,6.2,6.2,0,0,0-2.032-1.371l2.451-24.24a2.755,2.755,0,0,1,5.5.276Z" transform="translate(-240 -48.009)"/></g><g transform="translate(0 35.881)"><path class="a" d="M38.438,98.194,18.817,79.929a6.206,6.206,0,0,0-3.115-1.67L13.243,53.976A6.638,6.638,0,0,0,0,54.648V93.37A9.647,9.647,0,0,0,2.812,100.2l14.742,14.878a5.89,5.89,0,0,1,1.868,4.265v10.24H42.731V107.828A13.184,13.184,0,0,0,38.438,98.194Zm.408,27.507H23.308v-6.355a9.734,9.734,0,0,0-3.038-7.039L5.574,97.476a5.8,5.8,0,0,1-1.69-4.106V54.648a2.756,2.756,0,0,1,5.5-.284L11.833,78.6A6.407,6.407,0,0,0,9.8,89.038l15.224,13.81,2.61-2.875L12.485,86.23a2.461,2.461,0,0,1-.676-1.721,2.509,2.509,0,0,1,.742-1.787,2.569,2.569,0,0,1,3.57,0L35.8,101.053a9.281,9.281,0,0,1,3.042,6.79V125.7Z" transform="translate(0 -48.009)"/></g></g></svg>