<svg xmlns="http://www.w3.org/2000/svg" width="44" height="44" viewBox="0 0 44 44"><defs><style>.a{fill:#fff;}.b{fill:#262d32;}</style></defs><g transform="translate(-1326 2189)"><circle class="a" cx="22" cy="22" r="22" transform="translate(1326 -2189)"/><g transform="translate(1336 -2179)"><path class="b" d="M23.994,24H24V15.2c0-4.306-.927-7.623-5.961-7.623a5.226,5.226,0,0,0-4.707,2.587h-.07V7.976H8.489V24h4.97V16.065c0-2.089.4-4.109,2.983-4.109,2.549,0,2.587,2.384,2.587,4.243V24Z"/><path class="b" d="M.4,7.977H5.372V24H.4Z"/><path class="b" d="M2.882,0A2.9,2.9,0,1,0,5.764,2.882,2.883,2.883,0,0,0,2.882,0Z"/></g></g></svg>