<svg xmlns="http://www.w3.org/2000/svg" width="85.466" height="85.466" viewBox="0 0 85.466 85.466"><defs><style>.a{fill:#262d32;}</style></defs><path class="a" d="M68.373,34.186A17.093,17.093,0,1,0,52.9,9.877L48.322,8.188a6.915,6.915,0,0,0,.109-1.066,7.184,7.184,0,1,0-1.088,3.741l4.57,1.687a16.782,16.782,0,0,0,.234,9.884L36.48,29.073a17.011,17.011,0,0,0-21.138-8.014l-3.94-8.28a7.086,7.086,0,1,0-4.279,1.465,7,7,0,0,0,1.712-.232l3.935,8.272a17.064,17.064,0,0,0-.913,28.946L9.252,55.913a7.049,7.049,0,0,0-2.13-.36,7.207,7.207,0,1,0,4.62,1.746l2.611-4.693a16.949,16.949,0,0,0,17.4-2.027l5.607,6.168a17.011,17.011,0,0,0-4.6,11.626,17.2,17.2,0,0,0,.212,2.557l-6.6,1.566a7.08,7.08,0,1,0,.686,3c0-.079-.022-.152-.023-.231L33.625,73.7A17.086,17.086,0,1,0,64.91,60.291l8.367-5.44a7.263,7.263,0,1,0-1.547-2.393L63.343,57.91a17.188,17.188,0,0,0-6.366-5.056L63.93,33.58a17.032,17.032,0,0,0,4.443.606ZM41.309,11.4a4.273,4.273,0,1,1,4.273-4.273A4.279,4.279,0,0,1,41.309,11.4ZM2.849,7.122A4.273,4.273,0,1,1,7.122,11.4,4.279,4.279,0,0,1,2.849,7.122ZM7.122,66.948A4.273,4.273,0,1,1,11.4,62.675,4.279,4.279,0,0,1,7.122,66.948Zm12.82,12.82a4.273,4.273,0,1,1,4.273-4.273A4.279,4.279,0,0,1,19.942,79.768Zm58.4-34.186a4.273,4.273,0,1,1-4.273,4.273A4.279,4.279,0,0,1,78.344,45.582Zm-18.36-17a7.143,7.143,0,0,1,6.964-5.789H69.8a7.143,7.143,0,0,1,6.964,5.789,14.138,14.138,0,0,1-16.777,0Zm8.389-8.638a4.273,4.273,0,1,1,4.273-4.273A4.279,4.279,0,0,1,68.373,19.942Zm0-17.093A14.223,14.223,0,0,1,79.124,26.408a10.09,10.09,0,0,0-5.672-5.762,7.122,7.122,0,1,0-10.159,0,10.09,10.09,0,0,0-5.672,5.762A14.223,14.223,0,0,1,68.373,2.849ZM7.122,37.035A14.244,14.244,0,1,1,32.1,46.372a10.092,10.092,0,0,0-5.68-5.785,7.123,7.123,0,1,0-10.16,0,10.088,10.088,0,0,0-5.665,5.739A14.169,14.169,0,0,1,7.122,37.035Zm9.942-1.424a4.273,4.273,0,1,1,4.273,4.273A4.279,4.279,0,0,1,17.065,35.611ZM12.954,48.5a7.141,7.141,0,0,1,6.959-5.77h2.849A7.14,7.14,0,0,1,29.73,48.54,14.135,14.135,0,0,1,12.954,48.5ZM41.443,79.84A7.141,7.141,0,0,1,48.4,74.07h2.849a7.14,7.14,0,0,1,6.967,5.808,14.134,14.134,0,0,1-16.775-.038Zm8.384-8.619A4.273,4.273,0,1,1,54.1,66.948,4.279,4.279,0,0,1,49.827,71.221ZM64.1,68.373a14.173,14.173,0,0,1-3.512,9.337,10.092,10.092,0,0,0-5.68-5.785,7.123,7.123,0,1,0-10.16,0,10.088,10.088,0,0,0-5.665,5.739A14.237,14.237,0,1,1,64.1,68.373ZM54.3,51.886a16.858,16.858,0,0,0-14.83,2.943l-5.607-6.168a16.969,16.969,0,0,0,3.732-16.967L53.26,25.055a17.186,17.186,0,0,0,7.992,7.557Zm0,0" transform="translate(0)"/></svg>