<svg xmlns="http://www.w3.org/2000/svg" width="71.555" height="71.59" viewBox="0 0 71.555 71.59"><g transform="translate(-112.745 5991.778)"><path d="M167.938,164.79H96.4V93.2h71.555v71.59Zm-70.135-1.4h68.733V94.6H97.8Z" transform="translate(16.345 -6084.978)"/><path d="M319.908,311.238v-1.508H307.9V304.7h22.771v5.031h-3.05V314.9a.776.776,0,0,1-.263.035h-8.309a2.581,2.581,0,0,0-.631.07.59.59,0,0,0-.473.631v.841a.584.584,0,0,0,.4.579,1.507,1.507,0,0,0,.561.088h2.945a22.307,22.307,0,0,1,2.857.158,7.3,7.3,0,0,1,1.911.491,2.89,2.89,0,0,1,1.735,2.191,5.15,5.15,0,0,1,.088.894c0,1.139.018,2.279,0,3.4a3.273,3.273,0,0,1-.771,2.209,3.191,3.191,0,0,1-1.543.929,10.656,10.656,0,0,1-2.086.386c-.876.088-1.753.088-2.629.088h-3.436v2.174H310.3v-7.993h7.678v2.139a.22.22,0,0,0,.193.052h1.665a1.375,1.375,0,0,0,.578-.123.552.552,0,0,0,.333-.508v-2.174a.584.584,0,0,0-.4-.561,1.617,1.617,0,0,0-.649-.088c-1.157,0-2.331.018-3.488,0a14.727,14.727,0,0,1-3.155-.333,6.411,6.411,0,0,1-.982-.315,2.933,2.933,0,0,1-1.771-2.384,5.7,5.7,0,0,1-.052-.771c0-.719-.018-1.437,0-2.174a3.225,3.225,0,0,1,.736-2.121,2.91,2.91,0,0,1,1.28-.859,7.919,7.919,0,0,1,2.1-.456,26.168,26.168,0,0,1,3.313-.105h1.981c.07-.035.14-.018.245-.053" transform="translate(-158.08 -6259.402)"/><path d="M328.072,157.542a4.481,4.481,0,0,0-5.013-1.157,4.217,4.217,0,0,0-2.209,1.876,4.642,4.642,0,0,0-.614,2.857c-.333.018-.631.053-.929.053h-10.15c-.053,0-.105.018-.158-.035V136a.35.35,0,0,1,.228-.035c3.225,0,6.468-.018,9.694,0a13.6,13.6,0,0,1,5.7,1.174,11.072,11.072,0,0,1,6.24,7.38,14.673,14.673,0,0,1,.526,4.7,13.772,13.772,0,0,1-.964,4.68,11.5,11.5,0,0,1-2.191,3.488l-.105.105-.053.053m-12.148-15.5v13.094h2.717a5.424,5.424,0,0,0,.754-.035,5.091,5.091,0,0,0,4.032-2.682,7.241,7.241,0,0,0,.859-2.945,9.286,9.286,0,0,0-.386-3.734,5.45,5.45,0,0,0-1.42-2.279,5.238,5.238,0,0,0-3.681-1.437c-.894-.018-1.788,0-2.682,0a.248.248,0,0,0-.193.018" transform="translate(-158.987 -6120.238)"/><path d="M186.186,310.276a.523.523,0,0,1-.245-.105,18.632,18.632,0,0,0-4.733-1.963,6.106,6.106,0,0,0-2.454-.158,2.335,2.335,0,0,0-.6.175,1.12,1.12,0,0,0-.368,1.788,2.2,2.2,0,0,0,.666.473,11.614,11.614,0,0,0,1.841.684,39.581,39.581,0,0,1,4.786,1.648,9.573,9.573,0,0,1,2.472,1.49,5.678,5.678,0,0,1,2.033,3.418,9.5,9.5,0,0,1-.123,4.33,6.768,6.768,0,0,1-3.541,4.312,10.344,10.344,0,0,1-3.12,1.017,13.627,13.627,0,0,1-2.682.228,19.769,19.769,0,0,1-2.7-.193A26.545,26.545,0,0,1,171.97,326a16.61,16.61,0,0,1-2.524-1.192.924.924,0,0,1-.245-.175c.982-2.016,1.981-4.032,2.962-6.048a.686.686,0,0,1,.228.105,21.069,21.069,0,0,0,5.1,2.261,10.246,10.246,0,0,0,3.348.368,2.228,2.228,0,0,0,.754-.158,1,1,0,0,0,.386-1.665,2.776,2.776,0,0,0-.982-.631,18.844,18.844,0,0,0-2.191-.719,30.254,30.254,0,0,1-4.067-1.437,9.935,9.935,0,0,1-2.367-1.437,5.5,5.5,0,0,1-1.981-3.594,8.887,8.887,0,0,1,.438-4.435,7.771,7.771,0,0,1,3.594-4.1,10.29,10.29,0,0,1,3.629-1.192,13.6,13.6,0,0,1,5.119.316,25.975,25.975,0,0,1,5.294,1.963c.228.105.456.228.7.351-1,1.893-2,3.8-2.98,5.7" transform="translate(-43.693 -6257.038)"/><path d="M169.1,157.455c1-2.051,2-4.067,3-6.1.193.105.351.21.526.316a19.531,19.531,0,0,0,5.259,2.191,8.992,8.992,0,0,0,2.98.228,2.277,2.277,0,0,0,.578-.123.975.975,0,0,0,.754-.771,1.1,1.1,0,0,0-.386-1.034,3.245,3.245,0,0,0-1.122-.631c-.736-.28-1.508-.491-2.261-.719a24.961,24.961,0,0,1-4.382-1.648,8.571,8.571,0,0,1-2.121-1.49,5.15,5.15,0,0,1-1.525-2.84,8.77,8.77,0,0,1,.508-5.189,7.878,7.878,0,0,1,4.1-4.067,10.688,10.688,0,0,1,4.032-.947,15.4,15.4,0,0,1,5.276.754,28.643,28.643,0,0,1,4.19,1.683c.175.088.368.175.543.263.018,0,.018.018.053.035-.982,1.893-1.981,3.8-2.98,5.7a1.191,1.191,0,0,1-.3-.158,19,19,0,0,0-4.523-1.893,6.488,6.488,0,0,0-2.244-.228,3.068,3.068,0,0,0-.964.21,1.134,1.134,0,0,0-.28,1.893,4.5,4.5,0,0,0,.719.456,14.656,14.656,0,0,0,2.086.719,40.744,40.744,0,0,1,4.26,1.472,11.051,11.051,0,0,1,2.454,1.42,5.846,5.846,0,0,1,2.191,3.506,9.265,9.265,0,0,1-.105,4.33,6.7,6.7,0,0,1-3.208,4.154,10.207,10.207,0,0,1-3.155,1.157,14.629,14.629,0,0,1-3.383.28,23.9,23.9,0,0,1-10.062-2.682,1.943,1.943,0,0,1-.508-.245" transform="translate(-43.611 -6119.134)"/><path d="M386.373,260.895a3.287,3.287,0,1,1-3.278-3.3,3.265,3.265,0,0,1,3.278,3.3" transform="translate(-217.376 -6220.558)"/></g></svg>