<svg xmlns="http://www.w3.org/2000/svg" width="86" height="86" viewBox="0 0 86 86"><defs><style>.a{fill:#262d32;}</style></defs><g transform="translate(-1 -1)"><path class="a" d="M46.194,35.1a11.1,11.1,0,1,0-11.1,11.1A11.11,11.11,0,0,0,46.194,35.1ZM35.1,43.419A8.323,8.323,0,1,1,43.419,35.1,8.331,8.331,0,0,1,35.1,43.419Z" transform="translate(8.903 8.903)"/><path class="a" d="M81.421,42.75a37.191,37.191,0,0,0-2.744-12.906V26.256a2.708,2.708,0,0,1,1.194-2.273,12.482,12.482,0,0,0-8.192-22.9,12.566,12.566,0,0,0-10.7,9.542A37.463,37.463,0,0,0,31.516,8.685V1H23.194V23.194H20.419V6.548H12.1V23.194H9.323V12.1H1V25.968H11.176A37.342,37.342,0,0,0,8.707,56.484a5.491,5.491,0,0,0-.771,2.774H5.161A4.166,4.166,0,0,0,1,63.419v6.935H3.774a2.774,2.774,0,1,1,0,5.548H1v6.935A4.166,4.166,0,0,0,5.161,87H21.806a4.166,4.166,0,0,0,4.161-4.161V75.9H23.194a2.774,2.774,0,1,1,0-5.548h2.774V63.419a4.166,4.166,0,0,0-4.161-4.161H19.032a5.554,5.554,0,0,0-5.548-5.548,5.472,5.472,0,0,0-2.552.652,34.479,34.479,0,0,1-1.548-8.975H25.968v3.756l2.533.895q.129.327.272.653l-1.16,2.425,7.274,7.274,2.425-1.16c.216.1.434.187.653.272l.892,2.53h3.756V78.64a34.312,34.312,0,0,1-13.236-3.188l-1.171,2.515A37.469,37.469,0,0,0,73.129,67.532V77.618l3.687,7.374a3.632,3.632,0,0,0,6.5,0L87,77.618V49.548A6.944,6.944,0,0,0,81.421,42.75ZM6.548,23.194H3.774V14.871H6.548ZM63.5,12.2a9.748,9.748,0,0,1,8.489-8.363,10.361,10.361,0,0,1,1.15-.064A9.6,9.6,0,0,1,79.594,6.24,9.7,9.7,0,0,1,78.372,21.65a5.413,5.413,0,0,0-2.451,4.318H74.516V17.39a4.161,4.161,0,1,0-2.774,0v8.578H70.334a5.407,5.407,0,0,0-2.425-4.3A9.67,9.67,0,0,1,63.5,12.2ZM75.9,28.742v1.387a1.389,1.389,0,0,1-1.387,1.387H71.742a1.389,1.389,0,0,1-1.387-1.387V28.742ZM71.742,13.484a1.387,1.387,0,1,1,1.387,1.387A1.389,1.389,0,0,1,71.742,13.484ZM45.387,9.368a34.64,34.64,0,0,1,15.262,4.224A12.391,12.391,0,0,0,66.414,24a2.725,2.725,0,0,1,1.165,2.312v3.815a4.166,4.166,0,0,0,4.161,4.161h2.774a4.12,4.12,0,0,0,2.512-.866,34.446,34.446,0,0,1,1.616,9.188H62.032V38.857L59.5,37.962q-.129-.327-.272-.653l1.16-2.425L53.113,27.61l-2.425,1.16c-.216-.1-.434-.187-.653-.272l-.892-2.53H45.387ZM25.968,3.774h2.774V23.194H25.968Zm-11.1,5.548h2.774V23.194H14.871ZM10.71,62.032V59.258a2.774,2.774,0,0,1,5.548,0v2.774h5.548a1.389,1.389,0,0,1,1.387,1.387v4.161a5.548,5.548,0,1,0,0,11.1v4.161a1.389,1.389,0,0,1-1.387,1.387H5.161a1.389,1.389,0,0,1-1.387-1.387V78.677a5.548,5.548,0,1,0,0-11.1V63.419a1.389,1.389,0,0,1,1.387-1.387ZM25.968,38.857v3.756H9.371A34.517,34.517,0,0,1,14.4,25.968H31.516V11.649a34.364,34.364,0,0,1,11.1-2.291v16.61H38.857L37.962,28.5q-.327.129-.653.272l-2.425-1.16L27.61,34.887l1.16,2.425c-.1.216-.187.434-.272.653Zm14.853,20.4-.681-1.931-.635-.218a13.562,13.562,0,0,1-1.591-.663l-.6-.3-1.85.885-4.5-4.5.885-1.85-.3-.6a13.8,13.8,0,0,1-.663-1.591l-.218-.635-1.929-.68v-6.36l1.931-.681.218-.635a13.563,13.563,0,0,1,.663-1.591l.3-.6-.885-1.85,4.5-4.5,1.85.885.6-.3a13.8,13.8,0,0,1,1.591-.663l.635-.218.68-1.928h6.36l.681,1.931.635.218a13.561,13.561,0,0,1,1.591.663l.6.3,1.85-.885,4.5,4.5-.885,1.85.3.6a13.8,13.8,0,0,1,.663,1.591l.218.635,1.928.68v6.36l-1.931.681-.218.635a13.562,13.562,0,0,1-.663,1.591l-.3.6.885,1.85-4.5,4.5-1.85-.885-.6.3a13.8,13.8,0,0,1-1.591.663l-.635.218-.68,1.928Zm32.308-9.71V62.8A34.5,34.5,0,0,1,45.387,78.633v-16.6h3.756l.895-2.533q.327-.129.653-.272l2.425,1.16,7.274-7.274-1.16-2.425c.1-.216.187-.434.272-.653l2.53-.892V45.387h12.52a6.864,6.864,0,0,0-1.423,4.161ZM75.9,53.71h2.774V75.9H75.9Zm4.928,30.043a.889.889,0,0,1-1.533,0L76.76,78.677h6.608Zm3.394-7.85H81.452V53.71h2.774Zm0-24.968H75.9V49.548a4.161,4.161,0,1,1,8.323,0Z" transform="translate(0)"/><path class="a" d="M35.24,58.066a31.946,31.946,0,0,0,18.988-9.855L52.2,46.319a29.167,29.167,0,0,1-17.335,9Z" transform="translate(13.109 17.543)"/><path class="a" d="M53.075,43.887l-2.4-1.387a29.32,29.32,0,0,1-1.731,2.649L51.18,46.79A32.041,32.041,0,0,0,53.075,43.887Z" transform="translate(18.559 16.065)"/></g></svg>